<?xml version="1.0" standalone="no"?>
<!DOCTYPE svg PUBLIC "-//W3C//DTD SVG 20010904//EN"
 "http://www.w3.org/TR/2001/REC-SVG-20010904/DTD/svg10.dtd">
<svg version="1.0" xmlns="http://www.w3.org/2000/svg"
 width="298.000000pt" height="388.000000pt" viewBox="0 0 298.000000 388.000000"
 preserveAspectRatio="xMidYMid meet">

<g transform="translate(0.000000,388.000000) scale(0.100000,-0.100000)"
fill="#000000" stroke="none">
<path d="M2530 3691 l-265 -109 -3 -988 -2 -988 -48 -49 -47 -48 -5 -298 -5
-298 -290 113 -290 114 -75 -25 c-290 -94 -577 -132 -809 -106 -120 13 -276
43 -373 72 l-68 20 0 830 0 830 -22 -7 c-13 -3 -38 -12 -55 -20 l-33 -13 0
-791 0 -791 53 -23 c101 -45 2582 -1039 2605 -1044 l22 -4 0 1114 c0 1237 -10
2618 -19 2618 -3 0 -125 -49 -271 -109z"/>
</g>
</svg>
