<?xml version="1.0" standalone="no"?>
<!DOCTYPE svg PUBLIC "-//W3C//DTD SVG 20010904//EN"
 "http://www.w3.org/TR/2001/REC-SVG-20010904/DTD/svg10.dtd">
<svg version="1.0" xmlns="http://www.w3.org/2000/svg"
 width="646.000000pt" height="906.000000pt" viewBox="0 0 646.000000 906.000000"
 preserveAspectRatio="xMidYMid meet">

<g transform="translate(0.000000,906.000000) scale(0.100000,-0.100000)"
fill="#000000" stroke="none">
<path d="M5670 8443 c-206 -85 -395 -163 -419 -173 -24 -9 -48 -26 -54 -36 -9
-16 -8 -17 4 -7 12 10 14 -254 12 -1964 -3 -1769 -4 -1978 -18 -1993 -14 -16
-14 -18 6 -23 19 -5 20 -8 7 -21 -8 -8 -24 -13 -34 -12 -10 2 -27 -3 -36 -12
-14 -12 -15 -18 -6 -36 7 -11 11 -25 10 -29 -1 -5 2 -6 8 -2 6 4 4 14 -5 29
-8 12 -12 26 -8 30 4 3 13 -4 20 -16 7 -13 12 -17 13 -10 0 7 4 11 9 7 5 -3
12 -1 16 4 3 6 -4 8 -15 6 -14 -3 -20 0 -17 8 2 7 11 11 19 9 8 -1 25 9 38 23
13 14 19 25 14 25 -5 0 -4 4 1 8 22 16 69 75 55 68 -8 -4 -6 0 5 9 11 9 19 21
18 26 -2 5 2 9 8 9 6 0 8 9 4 23 -4 14 -3 18 3 9 7 -10 16 -4 36 23 15 19 24
40 20 47 -4 6 -3 8 3 5 9 -6 75 93 160 238 15 26 149 296 178 360 117 256 244
684 285 965 5 36 18 121 28 190 18 118 19 187 13 1247 l-6 1122 -375 -156z
m-410 -203 c8 -5 11 -10 5 -10 -5 0 -17 5 -25 10 -8 5 -10 10 -5 10 6 0 17 -5
25 -10z m55 -3790 c-3 -5 -12 -10 -18 -10 -7 0 -6 4 3 10 19 12 23 12 15 0z
m-10 -69 c-6 -5 -25 10 -25 20 0 5 6 4 14 -3 8 -7 12 -15 11 -17z m-77 -105
c-14 -10 -15 -15 -5 -26 10 -11 8 -11 -6 0 -18 13 -18 15 -1 27 23 17 34 16
12 -1z"/>
<path d="M930 6476 c7 -7 13 -7 20 0 6 6 3 10 -10 10 -13 0 -16 -4 -10 -10z"/>
<path d="M584 6352 l-282 -115 -6 -861 c-3 -473 -7 -1250 -8 -1724 l-3 -864
60 -24 c191 -79 410 -145 511 -157 23 -2 46 -7 53 -11 6 -4 11 -2 11 3 0 10
-22 16 -44 12 -5 -1 -4 4 2 12 9 10 13 490 14 1929 3 1696 1 1914 -12 1915 -8
0 -142 -51 -296 -115z"/>
</g>
</svg>
